HIERARCHY
ROOT Hips
{
	OFFSET -3.958830 18.904000 13.208200
	CHANNELS 6 Xposition Yposition Zposition Zrotation Yrotation Xrotation 
	JOINT LHipJoint
	{
		OFFSET 0.000000 0.000000 0.000000
		CHANNELS 3 Zrotation Yrotation Xrotation
		JOINT LeftUpLeg
		{
			OFFSET 1.800000 -1.400000 0.085000
			CHANNELS 3 Zrotation Yrotation Xrotation
			JOINT LeftLeg
			{
				OFFSET 2.215000 -6.000000 0.000000
				CHANNELS 3 Zrotation Yrotation Xrotation
				JOINT LeftFoot
				{
					OFFSET 2.500000 -6.900000 0.000000
					CHANNELS 3 Zrotation Yrotation Xrotation
					JOINT LeftToeBase
					{
						OFFSET 0.200000 -0.500000 1.950000
						CHANNELS 3 Zrotation Yrotation Xrotation
						End Site
						{
							OFFSET 0.000000 0.000000 0.000000
						}
					}
				}
			}
		}
	}
	JOINT RHipJoint
	{
		OFFSET 0.000000 0.000000 0.000000
		CHANNELS 3 Zrotation Yrotation Xrotation
		JOINT RightUpLeg
		{
			OFFSET -1.800000 -1.400000 0.085000
			CHANNELS 3 Zrotation Yrotation Xrotation
			JOINT RightLeg
			{
				OFFSET -2.215000 -6.000000 0.000000
				CHANNELS 3 Zrotation Yrotation Xrotation
				JOINT RightFoot
				{
					OFFSET -2.500000 -6.900000 0.000000
					CHANNELS 3 Zrotation Yrotation Xrotation
					JOINT RightToeBase
					{
						OFFSET -0.200000 -0.500000 1.950000
						CHANNELS 3 Zrotation Yrotation Xrotation
						End Site
						{
							OFFSET 0.000000 0.000000 0.000000
						}
					}
				}
			}
		}
	}
	JOINT LowerBack
	{
		OFFSET 0.000000 0.000000 0.000000
		CHANNELS 3 Zrotation Yrotation Xrotation
		JOINT Spine
		{
			OFFSET -0.087000 1.940000 -0.288900
			CHANNELS 3 Zrotation Yrotation Xrotation
			JOINT Spine1
			{
				OFFSET 0.000000 1.950000 0.060000
				CHANNELS 3 Zrotation Yrotation Xrotation
				JOINT Neck
				{
					OFFSET 0.000000 0.000000 0.000000
					CHANNELS 3 Zrotation Yrotation Xrotation
					JOINT Neck1
					{
						OFFSET 0.000000 1.600000 0.340000
						CHANNELS 3 Zrotation Yrotation Xrotation
						JOINT Head
						{
							OFFSET 0.000000 1.667000 -0.240000
							CHANNELS 3 Zrotation Yrotation Xrotation
							End Site
							{
								OFFSET 0.000000 0.000000 0.000000
							}
						}
					}
				}
				JOINT LeftShoulder
				{
					OFFSET 0.000000 0.000000 0.000000
					CHANNELS 3 Zrotation Yrotation Xrotation
					JOINT LeftArm
					{
						OFFSET 2.700000 1.550000 -0.730000
						CHANNELS 3 Zrotation Yrotation Xrotation
						JOINT LeftForeArm
						{
							OFFSET 5.450000 0.000000 0.000000
							CHANNELS 3 Zrotation Yrotation Xrotation
							JOINT LeftHand
							{
								OFFSET 3.450000 0.000000 0.000000
								CHANNELS 3 Zrotation Yrotation Xrotation
								JOINT LeftHandIndex1
								{
									OFFSET 0.750000 0.000000 0.000000
									CHANNELS 3 Zrotation Yrotation Xrotation
									End Site
									{
										OFFSET 0.000000 0.000000 0.000000
									}
								}
							}
						}
					}
				}
				JOINT RightShoulder
				{
					OFFSET 0.000000 0.000000 0.000000
					CHANNELS 3 Zrotation Yrotation Xrotation
					JOINT RightArm
					{
						OFFSET -2.700000 1.550000 -0.730000
						CHANNELS 3 Zrotation Yrotation Xrotation
						JOINT RightForeArm
						{
							OFFSET -5.450000 0.000000 0.000000
							CHANNELS 3 Zrotation Yrotation Xrotation
							JOINT RightHand
							{
								OFFSET -3.450000 0.000000 0.000000
								CHANNELS 3 Zrotation Yrotation Xrotation
								JOINT RightHandIndex1
								{
									OFFSET -0.750000 0.000000 0.000000
									CHANNELS 3 Zrotation Yrotation Xrotation
									End Site
									{
										OFFSET 0.000000 0.000000 0.000000
									}
								}
							}
						}
					}
				}
			}
		}
	}
}
MOTION
Frames: 4
Frame Time: 0.016667
-2.009090 16.579180 -0.539300 -8.633737 -0.588436 7.238360 -15.371187 11.826674 2.225744 30.826970 3.265737 -20.019597 2.219460 7.102356 15.036881 -0.387800 5.965272 2.658302 0.222120 -0.205130 0.188770 18.494251 -8.745845 4.289844 -31.237799 5.365172 -24.381443 37.775389 -10.203692 9.758341 -0.514535 -7.004869 1.959319 0.129130 0.847840 0.399450 -3.655192 -1.243730 -7.379882 -0.612177 3.493987 0.713866 4.093176 2.167009 9.298911 -1.871914 -4.240129 -6.568328 -6.781838 17.498957 23.761530 -6.138550 15.032410 4.926060 6.614878 18.114520 4.956480 -40.172354 18.690213 -4.411679 -59.187377 -47.556282 24.632983 -3.825482 4.188610 0.050380 0.778070 -0.521180 0.288980 -2.050982 -11.182097 1.302668 58.891517 9.891287 11.060612 148.548098 53.014193 111.224746 1.504384 -2.587832 -0.371520 0.169970 0.058430 -0.196900 
-2.125500 16.580910 -0.535670 -8.235436 -0.248915 7.529441 -15.369501 11.751870 2.213494 30.733956 3.175194 -20.160299 2.013234 7.034431 14.623700 -0.413606 5.955270 2.687967 0.238290 -0.192560 0.179320 18.515502 -8.630360 4.395887 -32.085929 5.336261 -24.226188 39.345919 -10.193405 9.037419 -0.560978 -7.150135 1.916505 0.154610 0.890070 0.388940 -3.683339 -1.288470 -7.403054 -0.842646 3.455273 0.513237 3.598507 2.259799 9.101314 -2.145263 -4.713023 -6.459041 -7.631330 18.203389 23.131646 -5.263510 14.614060 5.094130 7.152821 18.854479 5.063978 -40.938662 18.853161 -4.472791 -59.095586 -48.909081 25.407018 -3.793581 4.227058 0.055930 0.785360 -0.538940 0.319880 -2.109959 -11.442675 1.189176 57.968035 9.427046 11.208135 149.497718 52.103127 112.028132 1.485259 -2.628631 -0.398220 0.209230 0.051270 -0.184990 
-2.292730 16.568480 -0.531010 -7.809051 0.010856 7.747906 -15.378012 11.651735 2.228199 30.853986 3.111791 -20.206193 1.371314 7.139861 14.302666 -0.402037 5.985304 2.699961 0.240550 -0.171280 0.151060 18.531247 -8.497469 4.498774 -32.713952 5.301690 -24.065654 41.770234 -10.531263 8.742887 -0.627563 -7.381441 1.872868 0.175960 0.931820 0.366210 -3.687661 -1.333564 -7.443178 -1.262974 3.302928 0.401856 3.083424 2.194566 8.691115 -2.232256 -5.124902 -6.314503 -8.356200 19.130675 22.562504 -4.577240 14.567190 5.579820 7.245709 19.546677 5.285650 -42.058920 19.793269 -5.111793 -58.294642 -51.772956 26.606770 -3.759460 4.289562 0.032210 0.803270 -0.560870 0.351850 -2.064028 -11.724147 0.859882 55.961244 9.270641 12.429977 153.243355 48.909859 115.783605 1.469330 -2.724435 -0.412950 0.246280 0.039860 -0.162680 
-2.477210 16.552500 -0.523800 -7.570098 -0.275299 7.933698 -15.366853 11.601547 2.216264 30.899824 3.182314 -20.136017 0.919736 7.350257 14.655768 -0.389525 6.031684 2.697068 0.240260 -0.149170 0.112400 18.548979 -8.467750 4.572992 -32.579634 5.532197 -24.313490 43.705335 -10.955679 9.114147 -0.686805 -7.540911 1.853623 0.191040 0.962000 0.334590 -3.729394 -1.248069 -7.479515 -1.124980 3.525907 0.751339 2.207290 2.535027 7.483529 -2.242157 -5.739287 -6.057758 -9.418497 19.865373 21.913134 -3.705730 14.213220 5.811270 6.292842 20.173788 5.129695 -42.329181 20.213063 -5.460604 -57.003421 -55.282261 27.968732 -3.721810 4.347584 0.026970 0.800260 -0.572880 0.381060 -1.195338 -11.812558 0.645252 52.631067 8.440803 12.972556 156.034219 45.655687 118.357376 1.478225 -2.782749 -0.426900 0.286720 0.033690 -0.138090 
